<svg width="73" height="61" viewBox="0 0 73 61" fill="none" xmlns="http://www.w3.org/2000/svg">
<g clip-path="url(#clip0_1010_1341)">
<path d="M21.447 34.6388C21.4595 38.1793 18.5839 41.1197 15.0888 41.1414C11.497 41.1631 8.58562 38.2588 8.58203 34.6532C8.57845 31.1037 11.4433 28.1741 14.9402 28.1524C18.5284 28.1289 21.4345 31.026 21.447 34.6388ZM15.0011 32.4845C13.8355 32.4899 12.8757 33.4622 12.8721 34.6424C12.8704 35.8478 13.8623 36.831 15.0602 36.8093C16.2187 36.7876 17.1748 35.7882 17.1551 34.6171C17.1354 33.4351 16.1703 32.479 15.0011 32.4845Z" fill="#029752"/>
<path d="M72.9956 43.1892C72.9688 42.994 72.9455 42.7988 72.9222 42.6036C72.8721 42.1789 72.8184 41.7397 72.7396 41.3078C71.8175 36.3232 69.1621 32.443 64.8505 29.7736C62.6732 28.4271 60.2291 27.6482 57.5863 27.4602C57.563 27.4602 57.5219 27.4476 57.4843 27.4385C57.4538 27.4313 57.4234 27.4223 57.3929 27.415L57.3553 27.406H55.384L55.3607 27.4096C55.1673 27.4367 54.9739 27.4602 54.7788 27.4837C54.358 27.5361 53.9229 27.5903 53.495 27.6681C49.6865 28.353 46.4492 30.1911 43.8726 33.1315C41.5163 35.8226 40.1501 38.9818 39.8135 42.5223C39.3945 46.9321 40.5261 50.9334 43.1797 54.4161C45.6793 57.6964 48.9416 59.7802 52.8718 60.6061C54.1181 60.8682 55.3553 61.0019 56.5496 61.0019C60.1056 61.0019 63.436 59.8344 66.4477 57.5301C69.6724 55.0631 71.7512 51.7576 72.6232 47.7038C72.7289 47.2158 72.7897 46.717 72.8488 46.2345C72.8775 46.0085 72.9043 45.7826 72.9366 45.5567C72.9473 45.4844 72.9598 45.4103 72.9742 45.338L72.9992 45.1953V43.2145L72.9956 43.191V43.1892ZM69.7548 44.2012C69.7512 51.6546 63.7601 57.718 56.3974 57.718H56.3365C48.9416 57.6837 42.9433 51.6112 42.9666 44.1814C42.9899 36.7371 48.9918 30.679 56.3455 30.679H56.3705C63.7529 30.6935 69.7584 36.7588 69.7548 44.2012Z" fill="#029752"/>
<path d="M62.3154 46.7712C61.173 45.8983 59.6672 44.7489 58.1398 43.6139C58.0073 43.5163 57.9787 43.4512 57.9787 43.2723C57.9876 41.3728 57.9859 39.4408 57.9841 37.5739V36.8202C57.9841 35.9979 57.5955 35.3834 56.9187 35.1358C56.7307 35.0653 56.5355 35.031 56.3439 35.031C55.4505 35.031 54.745 35.7865 54.7378 36.7534C54.7307 37.6154 54.7325 38.4902 54.7342 39.336C54.7342 39.7065 54.736 41.5246 54.736 41.5246C54.736 42.3939 54.736 43.2651 54.7325 44.1344C54.7289 44.8049 54.9957 45.338 55.5239 45.7176C55.8408 45.9453 56.1577 46.1875 56.4639 46.4242C56.6054 46.5327 56.7486 46.6429 56.8901 46.7495L57.8963 47.5122C58.7218 48.1376 59.5472 48.7647 60.3762 49.3846C60.6967 49.625 61.0602 49.7515 61.4255 49.7515C61.9143 49.7515 62.3709 49.5201 62.6806 49.1171C62.9474 48.7701 63.0638 48.3472 63.0083 47.9297C62.9492 47.4833 62.7021 47.073 62.3118 46.773L62.3154 46.7712Z" fill="#029752"/>
<path d="M39.0977 49.8435C38.6877 48.4465 38.4334 46.9826 38.3582 45.4717C27.8407 45.4717 17.3231 45.4717 6.80549 45.4717C5.11523 45.4717 4.29158 44.6439 4.28979 42.9505C4.28979 37.4021 4.28979 31.8537 4.28979 26.3053C4.28979 24.648 5.11702 23.8202 6.76968 23.8202C15.9515 23.8202 25.1334 23.8202 34.3152 23.8202C43.4756 23.8202 52.6342 23.8202 61.7945 23.8202C63.5278 23.8202 64.3442 24.6371 64.3442 26.3739C64.3442 26.7354 64.3442 27.0969 64.3442 27.4601C65.9002 28.1595 67.3434 29.0686 68.6379 30.153C68.6361 28.8138 68.6326 27.4728 68.6308 26.1336C68.6254 23.1316 66.9119 20.7532 64.1043 19.7881C63.9253 19.7267 63.6871 19.6417 63.6155 19.4972C63.2825 18.8194 62.996 18.1164 62.6504 17.3248C63.868 17.3248 64.9745 17.3248 66.0828 17.3248C67.6334 17.3248 68.62 16.4916 68.629 15.1759C68.6379 13.8548 67.6514 12.9963 66.1151 12.9945C64.5287 12.9945 62.9422 12.9746 61.3576 13.0053C60.8867 13.0144 60.6557 12.8698 60.4659 12.4252C59.2752 9.65821 58.0559 6.90389 56.8383 4.14775C55.6226 1.38981 53.5205 0 50.5249 0C39.7352 0 28.9454 0.0036146 18.1557 0C15.135 0 13.0115 1.37716 11.7867 4.16763C10.5763 6.92557 9.35341 9.6799 8.15555 12.4451C7.98008 12.8499 7.78133 13.018 7.31937 13.0071C5.801 12.971 4.27905 13.0469 2.76247 12.9782C1.44463 12.9168 0.518929 13.3813 -0.00211572 14.6193V15.7018C0.52251 16.9272 1.44105 17.4242 2.75888 17.3392C3.79918 17.2724 4.84665 17.3248 5.99259 17.3248C5.65597 18.0947 5.36411 18.7923 5.0436 19.4773C4.98631 19.5984 4.82695 19.7068 4.69266 19.7484C2.14473 20.5653 0.62099 22.3039 0.0784582 24.9371C0.0712961 24.9751 0.0247423 25.004 -0.00390625 25.0383V44.2554C0.0462287 44.3999 0.107107 44.5409 0.144708 44.6873C0.6568 46.7621 1.84929 48.2911 3.78128 49.1766C4.21817 49.3772 4.29695 49.6158 4.29337 50.0387C4.27726 52.1587 4.26293 54.2786 4.29337 56.3986C4.32739 58.674 6.13046 60.5608 8.36683 60.6132C10.6444 60.6656 12.9237 60.6584 15.2013 60.615C17.1154 60.5789 18.7806 59.1728 19.1584 57.277C19.3016 56.5577 19.2837 55.7986 19.2909 55.0594C19.3088 53.3298 19.2962 51.5984 19.2962 49.8453H39.0906L39.0977 49.8435ZM9.98726 18.9152C11.896 14.5723 13.8118 10.2329 15.7116 5.88638C16.1807 4.81284 16.9471 4.32125 18.1181 4.32306C28.9293 4.33752 39.7423 4.33571 50.5536 4.32668C51.6279 4.32668 52.3996 4.73874 52.8437 5.74541C54.7989 10.1896 56.7595 14.6319 58.7148 19.0761C58.7596 19.1755 58.7882 19.2821 58.8545 19.4719H9.79031C9.86372 19.264 9.91385 19.0851 9.98905 18.9152H9.98726ZM14.9811 56.2486H8.60676V49.8417H14.9811V56.2486Z" fill="#029752"/>
</g>
<defs>
<clipPath id="clip0_1010_1341">
<rect width="73" height="61" fill="white"/>
</clipPath>
</defs>
</svg>
